<?xml version="1.0" encoding="UTF-8" standalone="no"?>
<!-- Created with Inkscape (http://www.inkscape.org/) -->

<svg
   xmlns:dc="http://purl.org/dc/elements/1.1/"
   xmlns:cc="http://creativecommons.org/ns#"
   xmlns:rdf="http://www.w3.org/1999/02/22-rdf-syntax-ns#"
   xmlns:svg="http://www.w3.org/2000/svg"
   xmlns="http://www.w3.org/2000/svg"
   xmlns:sodipodi="http://sodipodi.sourceforge.net/DTD/sodipodi-0.dtd"
   xmlns:inkscape="http://www.inkscape.org/namespaces/inkscape"
   width="16"
   height="16"
   viewBox="0 0 4.2333333 4.2333335"
   version="1.1"
   id="svg4080"
   inkscape:version="0.92.1 r15371"
   sodipodi:docname="icon-function.svg">
  <defs
     id="defs4074" />
  <sodipodi:namedview
     id="base"
     pagecolor="#ffffff"
     bordercolor="#666666"
     borderopacity="1.0"
     inkscape:pageopacity="0.0"
     inkscape:pageshadow="2"
     inkscape:zoom="5.6"
     inkscape:cx="19.402327"
     inkscape:cy="-20.462452"
     inkscape:document-units="mm"
     inkscape:current-layer="layer1"
     showgrid="false"
     units="px"
     inkscape:window-width="1920"
     inkscape:window-height="1017"
     inkscape:window-x="-8"
     inkscape:window-y="-8"
     inkscape:window-maximized="1" />
  <metadata
     id="metadata4077">
    <rdf:RDF>
      <cc:Work
         rdf:about="">
        <dc:format>image/svg+xml</dc:format>
        <dc:type
           rdf:resource="http://purl.org/dc/dcmitype/StillImage" />
        <dc:title></dc:title>
      </cc:Work>
    </rdf:RDF>
  </metadata>
  <g
     inkscape:label="Layer 1"
     inkscape:groupmode="layer"
     id="layer1"
     transform="translate(0,-292.76664)">
    <g
       id="g4110"
       transform="translate(-2.7025298,-14.259153)">
      <polygon
         id="polygon304"
         points="13,32.691 13,27.309 7.791,24 7.209,24 2,27.309 2,32.691 7.209,36 7.791,36 "
         style="fill:#2d2d30"
         transform="matrix(0.26458333,0,0,0.26458333,2.8348215,301.20496)" />
      <polygon
         id="polygon306"
         points="7.5,25 3,27.857 3,32.143 7.5,35 12,32.143 12,27.857 "
         style="fill:#b180d7"
         transform="matrix(0.26458333,0,0,0.26458333,2.8348215,301.20496)" />
      <polygon
         id="polygon308"
         points="7,33.498 4,31.593 4,28.777 7,30.684 "
         style="fill:#b180d7"
         transform="matrix(0.26458333,0,0,0.26458333,2.8348215,301.20496)" />
      <polygon
         id="polygon310"
         points="4.642,28 7.5,26.186 10.358,28 7.5,29.814 "
         style="fill:#b180d7"
         transform="matrix(0.26458333,0,0,0.26458333,2.8348215,301.20496)" />
      <polygon
         id="polygon312"
         points="11,31.593 8,33.498 8,30.684 11,28.777 "
         style="fill:#b180d7"
         transform="matrix(0.26458333,0,0,0.26458333,2.8348215,301.20496)" />
      <polygon
         id="polygon314"
         points="10.358,28 7.5,29.814 4.642,28 7.5,26.186 "
         style="fill:#2b282e"
         transform="matrix(0.26458333,0,0,0.26458333,2.8348215,301.20496)" />
      <polygon
         id="polygon316"
         points="4,28.777 7,30.684 7,33.498 4,31.593 "
         style="fill:#2b282e"
         transform="matrix(0.26458333,0,0,0.26458333,2.8348215,301.20496)" />
      <polygon
         id="polygon318"
         points="8,33.498 8,30.684 11,28.777 11,31.593 "
         style="fill:#2b282e"
         transform="matrix(0.26458333,0,0,0.26458333,2.8348215,301.20496)" />
    </g>
  </g>
</svg>
